<?xml version="1.0" encoding="utf-8"?>
<!-- Generator: Adobe Illustrator 19.0.1, SVG Export Plug-In . SVG Version: 6.00 Build 0)  -->
<svg version="1.1" id="Calque_1" xmlns="http://www.w3.org/2000/svg" xmlns:xlink="http://www.w3.org/1999/xlink" x="0px" y="0px"
	 viewBox="0 0 600 300" style="enable-background:new 0 0 600 300;" xml:space="preserve">
<style type="text/css">
	.st0{fill:#FCFCFC;}
	.st1{display:none;}
	.st2{fill:#FFFFFF;}
	.st3{display:inline;}
</style>
<g>
	<polygon points="6.5,246.6 6.5,273.3 27.8,224.5 16,224.5 	"/>
	<polygon class="st0" points="19.8,215.8 31.6,215.8 32.8,213.1 21,213.1 	"/>
</g>
<g>
	<polygon points="47.6,151.6 23.5,207.2 35.4,207.2 59.7,151.6 91.9,77.4 109.7,77.3 141.8,151.6 150.4,151.6 99.3,33.2 	"/>
	<polygon class="st0" points="153.9,151.6 100.8,29.9 99.8,32.1 152,151.6 	"/>
	<line x1="99.3" y1="33.2" x2="99.8" y2="32.1"/>
</g>
<polygon class="st0" points="130.6,156.5 104.4,156.5 98.6,156.5 96.7,156.5 91.4,168.8 98.8,168.8 101.4,162.9 127.8,162.9 "/>
<path d="M191.6,133.2c0-16.5-15.2-29.8-34-29.8h-20.7l3.3,6.1H157c14.9,0,26.9,10.6,26.9,23.6s-12,23.6-26.9,23.6h-17.4l-2.8,6.3
	h20.8c3.1,0,6.2-0.4,9-1.1l13.5,31.9h11.4l-18.3-34.2C184.2,154.7,191.6,144.7,191.6,133.2z"/>
<path class="st1" d="M163.6,141.6c4.5,0,8.1-3.6,8.1-8.1c0-4.5-3.6-8.1-8.1-8.1h-16l6.7,16.3H163.6z"/>
<path d="M247.2,103.4h-18.7c-4.6,0-8.7,2.7-10.5,6.9l-5.8,13.4l-5.9-13.4c-1.8-4.2-6-6.9-10.5-6.9h-22.6c6.4,2.2,9.4,4.4,12.8,7.6
	h3.5c4.5,0,8.6,2.7,10.5,6.8l9.8,21.8l4.8,0l9.3-21.7c1.8-4.2,6-6.9,10.5-6.9h4.7l4.1,39.5l4-8.5V103.4z"/>
<polygon class="st2" points="210.2,142.4 214,142.4 212.2,151.1 "/>
<path d="M274.4,103.4c-10.3,0-14.7,2.1-21.1,5l7.2,16.8l7.9-5.2l-1.8-4.3c2.2-0.7,4.6-1,7-1c13.7,0,24.8,11.1,24.8,24.8
	c0,13.7-11.1,24.8-24.8,24.8c-9.2,0-17.1-5-21.5-12.3l-1.1,2.6c4.9,7.6,13.5,12.6,23.2,12.6c15.3,0,27.7-12.4,27.7-27.7
	c0-15.3-12.4-27.7-27.7-27.7c-3.7,0-6.5,0.4-8.8,1l-0.2-0.6c2.8-1.3,7-1.7,9.2-1.6c15.9,0.5,28.8,12.9,28.8,28.8
	c0,15.9-12.9,28.8-28.8,28.8c-11.9,0-22.2-7.3-26.6-17.6l-3.8,8.5c6.5,9.9,17.6,16.4,30.3,16.4c20,0,36.2-16.2,36.2-36.2
	C310.6,119.7,294.4,103.4,274.4,103.4z"/>
<circle class="st2" cx="275.5" cy="140.7" r="7.2"/>
<path class="st0" d="M353.9,54.7c9.9-9.7,22.9-15.6,37-15.6c12.5,0,24,4.6,33.4,12.3l-0.3-10.9C406,28.2,382.9,26,362.4,37
	c-4.6,2.5-8.7,5.4-12.5,8.8L353.9,54.7z"/>
<g>
	<path class="st0" d="M373.5,273.3l74-169.9h-49.9L384.9,131h11.4l8.6-17.4h26.3l-21.4,49.3c-5.9,2.3-12.2,3.6-18.8,3.6
		c-31.2,0-56.6-28.5-56.6-63.7c0-14.1,4.7-28.4,11.6-38.9h-10.5c-10.9,20.3-13.4,47.4-3.6,70.4c13.4,31.5,44.1,47.2,73.1,39.6
		l-31.5,72.6V273.3z"/>
	<path d="M345.7,49.9c-2.7,2.8-5.1,5.9-7.2,9.2h11.1L345.7,49.9z"/>
</g>
<polygon class="st0" points="476.5,163.9 450.2,103.4 446.3,112.8 456.8,137.3 438.1,137.3 434.7,144.9 459.7,145 468.1,163.9 "/>
<g class="st1">
	<polygon class="st3" points="359,269.9 359,250.5 356.9,251.2 356.9,269.2 	"/>
	<polygon class="st3" points="363.8,271.3 363.8,249 361.4,249.8 361.4,270.6 	"/>
	<polygon class="st3" points="335.5,260.2 350.2,272.6 350.2,247.8 	"/>
	<polygon class="st3" points="370.4,273.3 370.4,247 367,248.1 367,272.3 	"/>
	<polygon class="st3" points="352.1,252.6 350.8,253 350.8,267.4 352.1,267.8 	"/>
	<polygon class="st3" points="355.1,268.7 355.1,251.7 353.4,252.2 353.4,268.2 	"/>
</g>
<g>
	<path class="st2" d="M464.5,122.9c0-3.5,2.3-7.4,5-9.4c2.7-2.1,8.1-4,12.8-3.9c8.1,0.1,14.5,2.4,18,6.2c4.2,4.6,4.1,6.8,4.8,10.6
		l7-0.1c-1-6.1-2.2-9.6-6.7-14.5c-4.5-4.9-11.9-8.3-22.1-8.3c-7.9,0-14.7,2.1-20.4,6.2c-1.2,0.9-2.3,1.9-3.3,2.9l4.9,11.4
		C464.5,123.5,464.5,123.2,464.5,122.9z"/>
</g>
<path d="M492.8,126.4c0-4.5-3.6-8.1-8.1-8.1c-4.5,0-8.1,3.6-8.1,8.1H492.8z"/>
<g>
	<polygon class="st0" points="427.7,166.8 425,172.8 432.9,172.8 435.6,166.8 	"/>
	<path class="st0" d="M510,172.8c1.4-2.9,2.1-6.1,2.1-9.7c0-5.1-2.4-9.6-7.1-13.6c-4.7-4-11.3-4.9-20-7.8
		c-7.7-2.4-12.9-4.6-15.6-6.4l4.4,10.2c2.1,0.8,4.4,1.6,7,2.4c6.7,2.2,14.8,4.7,18.3,7.4c3.5,2.7,5.4,5.7,5.3,8.8
		c0,0.8-0.2,1.3-1.5,2.7h-59.4l-2.6,6H510z"/>
	<polygon points="424.5,174 423.7,175.9 431.6,175.9 432.4,174 	"/>
	<path d="M497,175.9h8.4h2.7c0.4-0.6,0.8-1.2,1.2-1.9h-69l-0.8,1.9H497z"/>
</g>
<g>
	<path class="st0" d="M510.8,112.6h6.9c3.7,0,6.6,3,6.6,6.6V158h8.5v-38.7c0-3.7,3-6.6,6.6-6.6h22.5H600V107h-93.8
		C507.5,108.2,509.9,110.7,510.8,112.6z"/>
	<path d="M600,105.3v-1.9h-38.1h-61.1c1.4,0.7,2.4,1.3,3.3,1.9v0H600z"/>
</g>
<path class="st0" d="M561.9,160.4v-15.5h29.3v-7.3h-20.8c-4.7,0-8.5-3.8-8.5-8.5v-11.9l-7.9-0.1v58.7h7.9H600v-7h-29.6
	C565.7,168.9,561.9,165.1,561.9,160.4z"/>
</svg>
